<svg width="655" height="322" viewBox="0 0 655 322" fill="none" xmlns="http://www.w3.org/2000/svg">
<path d="M50.0516 0.577343C44.4808 1.26298 33.1678 4.60547 31.2823 6.06245C30.5966 6.57668 28.454 7.77655 26.5685 8.7193C24.683 9.66205 19.8835 13.6902 15.8554 17.7183C10.2846 23.2891 7.79914 26.5459 5.3994 31.4311C0.428524 41.7157 0 43.6012 0 56.2855C0.0857048 67.0843 0.257115 68.2841 2.65685 74.712C5.99934 83.2825 8.8276 87.9106 14.9126 94.3384C21.8547 101.623 27.5112 105.137 40.1956 110.194C42.5096 111.137 42.5953 111.394 42.0811 115.25C41.7383 117.479 41.1383 121.164 40.6241 123.564C40.1956 125.878 39.0814 132.82 38.1386 138.991C37.1959 145.076 35.8246 153.389 35.139 157.417C34.4533 161.445 33.0821 169.502 32.0536 175.415C31.1109 181.329 29.9967 188.271 29.4825 190.842C28.2826 198.298 28.5397 208.326 30.1681 212.44C32.225 217.839 36.8531 223.153 41.6525 225.553C47.6519 228.638 58.9649 228.638 66.6784 225.553C76.1059 221.781 85.1049 211.925 87.7617 202.412C88.8759 198.555 91.1042 187.5 92.1327 180.986C92.4755 178.586 93.6754 171.216 94.7895 164.445C96.5893 153.046 96.6751 152.103 95.3038 150.818C93.9325 149.447 93.2469 149.532 83.9907 152.618C73.1919 156.132 71.5635 157.246 71.5635 160.674C71.5635 161.96 71.135 164.359 70.7065 166.073C70.1923 167.787 69.2495 173.444 68.5639 178.501C65.907 198.213 64.7071 201.641 59.7363 204.298L56.908 205.84L54.6797 203.269C52.6228 200.955 52.5371 200.441 53.0513 194.27C53.3084 190.756 54.4226 183.557 55.3653 178.415C56.3081 173.187 57.5936 165.731 58.2793 161.702C60.5076 147.561 61.3647 142.419 62.136 138.562C62.6502 136.419 63.3359 131.963 63.8501 128.706C64.8786 121.078 66.3355 113.536 66.8498 113.022C67.2783 112.594 76.5344 109.937 85.7048 107.623C96.0751 105.052 102.931 102.652 104.388 101.023C105.588 99.7378 108.759 82.9397 110.559 68.627C111.588 60.8278 107.731 49.3434 102.76 45.0581C95.3038 38.716 79.5341 37.7732 69.5923 43.2583C62.8216 46.8579 56.8223 53.2858 53.3084 60.5707C50.223 66.9129 48.1661 76.0833 45.7664 93.5671C44.3951 103.423 43.9666 103.68 35.2247 99.2236C22.7118 92.8814 13.7985 82.3398 9.85606 69.1412C8.22766 63.7418 8.05625 61.4278 8.39907 54.5714C9.08471 41.8871 13.1128 32.6309 22.0261 23.2034C36.6817 7.77655 61.7932 3.66272 81.2482 13.5188C84.2479 15.1472 84.4193 15.4043 84.4193 19.5181C84.4193 25.5174 86.9904 29.717 93.1611 34.0022C98.8177 37.8589 100.103 38.1161 102.16 35.7163C104.131 33.488 105.503 33.5737 109.359 36.2305C111.159 37.4304 113.302 38.2875 114.159 38.1161C116.901 37.6018 115.873 34.6022 112.016 32.031C108.074 29.3742 107.474 26.8887 110.216 25.1746C111.331 24.489 112.702 24.9175 116.044 27.0601C120.587 29.9741 122.986 30.0598 122.986 27.2315C122.986 26.2031 121.444 24.5747 118.701 22.8606C114.33 20.0323 113.645 18.8325 115.359 17.1184C117.244 15.2329 115.444 12.1475 110.731 9.31923C103.617 5.03399 101.217 4.60547 94.6181 6.23386L88.9616 7.69084L81.7624 4.60547C72.0778 0.405933 61.5361 -0.879639 50.0516 0.577343ZM84.5907 64.5988C86.9904 66.7415 86.3048 78.0545 82.8766 93.0528C81.4196 99.3093 81.4196 99.395 77.5629 101.023C71.9921 103.423 69.3352 103.852 68.7353 102.309C68.4782 101.623 68.821 98.0237 69.5066 94.3384C70.1923 90.6531 71.135 84.8252 71.5635 81.5684C72.5063 74.712 74.4775 67.7699 76.0202 65.8844C78.3342 63.1419 82.2766 62.5419 84.5907 64.5988Z" fill="url(#paint0_linear_9_57)"/>
<path d="M452.607 43.0012C450.722 43.9439 449.522 48.572 447.808 60.9992C447.379 64.256 445.836 73.7692 444.379 81.9969C442.922 90.2245 441.208 100.252 440.523 104.28C439.237 112.594 436.066 132.391 434.952 139.419C434.181 144.39 431.695 158.788 429.038 173.701C428.096 178.672 426.553 187.5 425.524 193.413C424.582 199.327 423.21 207.297 422.525 211.154C420.811 220.667 420.811 224.01 422.782 224.61C423.982 224.953 470.948 225.552 474.205 225.21C475.662 225.124 476.519 222.553 478.147 213.297C480.118 201.555 480.718 202.069 463.834 201.812L449.95 201.555L449.693 197.613C449.522 195.384 450.036 190.242 450.722 186.043C451.407 181.843 452.95 172.415 454.15 165.131C455.35 157.846 456.721 150.989 457.235 149.875C458.007 148.075 458.521 147.99 466.92 147.99C473.091 147.99 476.262 147.647 477.376 146.79C479.09 145.504 480.718 139.419 481.661 129.82C482.261 124.078 482.261 123.992 480.033 123.135C478.747 122.707 474.205 122.278 470.005 122.278C463.32 122.278 462.377 122.107 462.292 120.735C462.12 118.85 461.863 120.821 465.291 99.5664C467.006 89.1961 468.805 78.3116 469.234 75.3119C470.948 65.113 469.577 65.8844 485.861 65.5416C497.088 65.3701 500.259 65.0273 501.287 63.9989C502.744 62.4562 505.23 51.7431 505.23 46.8579C505.23 44.8867 504.801 43.2583 504.201 43.0012C501.716 42.1441 454.236 42.1441 452.607 43.0012Z" fill="url(#paint1_linear_9_57)"/>
<path d="M591.192 43.1726C589.735 44.3725 589.049 46.6865 587.935 53.7143C587.164 58.6852 584.25 76.4261 581.507 93.1385C578.679 109.851 575.422 130.077 574.222 138.134C573.022 146.104 570.708 159.646 569.08 168.13C565.823 185.443 560.852 215.097 560.252 220.582C559.995 223.838 560.167 224.353 561.966 224.953C564.452 225.81 580.736 225.381 581.679 224.438C582.107 224.01 583.564 216.554 584.935 207.897C586.392 199.241 588.106 188.614 588.878 184.414C589.649 180.129 590.763 173.787 591.363 170.273C592.049 166.759 592.992 160.76 593.506 156.989C595.734 141.219 597.705 134.791 599.419 137.619C599.762 138.219 600.705 148.161 601.562 159.817C602.333 171.473 603.362 185.443 603.876 190.842C604.305 196.241 604.99 205.583 605.419 211.668C605.847 218.01 606.619 223.067 607.219 223.838C607.99 224.781 610.133 225.124 615.875 225.124C626.074 225.124 625.817 225.381 627.788 211.84C628.302 208.069 629.159 203.184 629.588 200.87C630.016 198.641 631.302 190.499 632.502 182.7C633.701 174.901 634.987 166.93 635.416 164.873C635.93 162.902 637.044 156.389 637.987 150.561C638.929 144.647 640.729 134.02 641.929 126.992C643.129 119.878 645.1 108.137 646.3 100.852C647.414 93.5671 649.128 83.2825 649.985 78.1402C655.385 47.2865 655.642 45.1438 654.356 43.8583C652.899 42.5727 639.615 41.2871 636.015 42.2299C633.273 42.9155 632.673 44.8867 630.359 60.5707C629.331 67.4271 627.531 78.5687 626.331 85.4251C625.217 92.2815 623.931 99.7378 623.588 102.138C620.246 123.478 617.846 133.163 616.218 131.62C615.703 131.02 614.075 111.479 613.218 94.4241C611.761 65.0274 610.39 44.3725 609.875 43.6012C609.618 43.1726 605.676 42.487 601.219 42.2299C593.934 41.6299 592.82 41.8014 591.192 43.1726Z" fill="url(#paint2_linear_9_57)"/>
<path d="M143.298 44.8867C142.613 46.258 141.584 49.172 140.984 51.5717C140.385 53.8857 138.328 61.0849 136.528 67.4271C134.642 73.7692 132.757 80.3685 132.414 81.9969C132.071 83.6253 130.7 88.082 129.414 91.853C128.129 95.624 125.986 102.566 124.701 107.28C123.415 111.994 120.501 121.85 118.358 129.135C116.13 136.419 112.102 150.132 109.359 159.56C103.446 179.529 100.446 189.556 95.6466 204.983C91.3614 218.868 90.59 223.324 92.2184 224.353C93.6754 225.295 111.845 225.381 113.302 224.438C114.416 223.753 120.415 206.183 120.415 203.783C120.415 203.012 121.015 201.469 121.787 200.441C122.986 198.727 123.758 198.555 131.043 198.555C137.471 198.555 139.185 198.813 139.613 199.841C139.87 200.612 139.87 205.926 139.527 211.84C139.185 219.896 139.27 222.81 140.127 223.838C141.499 225.552 159.582 225.724 161.725 224.01C163.353 222.81 164.296 206.955 165.839 153.56C166.353 136.591 167.124 117.65 167.553 111.565C168.067 105.394 168.41 96.5667 168.41 91.853C168.41 87.1392 168.839 74.712 169.353 64.256C170.124 49.0006 170.124 44.8867 169.267 43.8583C168.41 42.8298 165.925 42.5727 156.326 42.5727H144.498L143.298 44.8867ZM147.498 111.736C147.155 116.365 146.555 122.792 146.127 126.135C145.184 133.248 143.556 151.161 142.784 162.731C142.441 167.53 141.756 171.558 141.07 172.33C140.299 173.273 138.499 173.701 135.328 173.701C129.329 173.701 128.729 172.587 130.7 164.702C132.157 158.617 132.928 155.617 137.556 135.562C140.213 124.164 144.241 107.623 145.013 104.88C145.184 104.109 145.955 103.423 146.727 103.423C147.841 103.423 147.927 104.537 147.498 111.736Z" fill="url(#paint3_linear_9_57)"/>
<path d="M200.721 44.0296C199.949 44.9724 198.835 49.3433 198.064 54.9999C196.435 66.2272 194.464 79.4257 193.179 87.1392C192.236 93.1385 191.55 97.338 186.322 126.563C184.437 137.191 182.123 150.646 181.18 156.56C180.323 162.474 179.123 169.416 178.609 171.987C178.18 174.558 177.152 180.129 176.466 184.414C173.295 203.184 172.867 206.097 171.924 210.211C171.324 212.611 170.981 216.896 171.153 219.639L171.41 224.695L181.351 224.953C189.236 225.124 191.55 224.953 192.322 223.924C193.35 222.724 198.064 197.27 200.635 179.272C201.321 174.558 202.178 168.987 202.692 166.845C203.12 164.702 203.892 160.245 204.406 156.817C205.434 150.475 206.634 148.418 208.606 149.618C210.063 150.561 210.063 151.761 208.777 189.899C207.577 221.867 207.663 222.81 209.205 224.01C210.405 224.867 213.405 225.124 221.033 224.953C231.232 224.695 231.317 224.695 231.917 222.553C232.26 221.353 232.517 203.869 232.603 183.729C232.689 142.419 232.26 145.333 239.802 135.734C244.687 129.649 246.487 125.021 248.201 114.565C248.715 111.479 249.572 105.737 250.258 101.709C250.944 97.6809 252.229 90.3959 253.258 85.4251C254.372 80.2828 255.229 72.7408 255.229 67.8556C255.4 57.8281 254.286 54.7427 248.287 49.0005C242.373 43.344 238.945 42.5726 218.976 42.5726C203.977 42.5726 201.921 42.7441 200.721 44.0296ZM229.86 67.5985C231.403 69.0555 231.832 70.341 231.832 73.8549C231.832 80.1971 226.089 113.022 224.204 117.393C221.376 124.078 214.176 127.935 211.262 124.421C209.977 122.792 209.891 123.478 215.205 90.5674C217.176 78.5687 219.147 68.884 220.004 67.1699C221.118 64.9416 227.289 65.1987 229.86 67.5985Z" fill="url(#paint4_linear_9_57)"/>
<path d="M274.084 44.2011C273.141 45.7438 269.627 65.6273 266.971 84.5681C265.942 92.0244 265.685 93.5671 260.543 123.564C256.943 144.647 255.486 153.475 253.686 165.131C251.629 178.758 249.83 189.214 248.973 192.556C248.63 194.185 248.03 197.698 247.687 200.27C247.43 202.841 246.83 205.926 246.401 207.126C245.03 210.726 244.002 222.039 244.859 223.581C245.459 224.953 246.916 225.124 255.229 225.124C260.543 225.124 265.257 224.781 265.771 224.438C267.056 223.667 267.57 221.696 268.685 214.411C273.227 184.586 273.998 180.3 277.684 158.703C278.884 151.589 280.683 141.219 281.54 135.562C282.483 129.906 284.369 118.336 285.911 109.851C287.368 101.366 289.082 91.253 289.682 87.3963C290.282 83.5396 291.054 79.5972 291.396 78.6544C291.654 77.7117 292.253 74.2835 292.682 71.1124C293.111 67.9413 294.225 60.9992 295.253 55.8569C297.739 42.4013 297.91 42.5727 285.226 42.5727C276.141 42.5727 275.027 42.7441 274.084 44.2011Z" fill="url(#paint5_linear_9_57)"/>
<path d="M311.023 43.5154C309.994 45.2295 308.109 53.2001 308.109 56.0283C308.109 57.571 307.509 61.8563 306.909 65.4559C304.766 76.8546 302.967 87.3106 302.11 93.1385C301.681 96.2239 299.538 109.08 297.31 121.85C295.167 134.534 293.025 147.647 292.596 150.818C292.253 154.075 291.568 158.703 291.054 161.102C290.625 163.588 289.939 167.702 289.682 170.273C289.082 175.501 288.397 179.529 285.826 192.299C282.14 210.64 280.598 221.696 281.626 223.496C282.483 225.21 283.083 225.295 301.081 224.953C319.079 224.61 319.85 224.524 324.736 222.296C337.506 216.382 343.676 206.097 347.533 184.328C348.562 178.672 349.933 170.873 350.618 167.016C351.304 163.074 352.076 157.074 352.333 153.732C352.847 148.075 352.675 147.133 350.361 142.847C348.733 139.848 346.59 137.277 344.276 135.734C339.991 132.906 339.734 131.363 343.162 129.563C344.533 128.877 348.047 126.135 350.876 123.478C357.903 117.05 359.103 113.536 362.96 89.7103C363.474 86.6249 364.246 81.7398 364.674 78.9115C366.302 68.7126 365.36 60.8278 361.417 53.2858C359.018 48.4863 356.275 46.258 350.704 44.2868C346.505 42.8298 343.591 42.5727 328.764 42.5727C317.365 42.5727 311.451 42.9155 311.023 43.5154ZM339.477 66.57C339.563 66.57 340.077 67.7699 340.677 69.1412C342.048 72.3122 341.534 77.9688 338.106 97.5952C335.363 113.793 333.478 118.936 329.621 120.907C326.364 122.621 321.907 122.707 321.307 121.078C321.05 120.393 322.164 111.565 323.879 101.538C325.507 91.5101 327.307 80.1971 327.907 76.4261C328.507 72.6551 329.278 68.7126 329.621 67.6842C330.392 65.5416 333.049 64.9416 336.82 65.8844C338.191 66.2272 339.391 66.57 339.477 66.57ZM327.307 148.161C329.021 150.561 329.107 158.96 327.478 166.673C326.793 169.844 325.593 176.444 324.821 181.415C323.964 186.385 322.936 191.699 322.507 193.242C320.793 198.898 314.451 203.012 309.823 201.555C307.338 200.784 307.509 197.956 311.623 174.558C313.594 163.502 315.394 153.046 315.651 151.418C316.165 147.133 317.194 146.276 321.907 146.276C325.164 146.276 326.278 146.618 327.307 148.161Z" fill="url(#paint6_linear_9_57)"/>
<path d="M380.872 43.944C380.272 44.7153 379.501 47.5436 379.158 50.2004C378.644 54.9142 376.673 66.9986 374.959 75.569C374.273 79.34 373.073 86.5393 367.674 118.85C366.988 122.878 365.874 129.992 365.102 134.705C364.417 139.419 363.217 146.533 362.531 150.561C361.846 154.589 359.703 167.102 357.818 178.415C355.846 189.728 353.532 203.526 352.59 209.183C351.647 214.754 350.961 220.496 351.133 222.039L351.39 224.695H391.671L396.642 221.781C406.498 216.125 411.812 208.326 415.583 194.27C418.582 182.614 423.382 151.675 422.61 147.904C421.839 143.704 417.468 137.362 413.954 135.22C412.326 134.277 410.955 132.906 410.955 132.134C410.955 131.449 412.583 129.82 414.64 128.62C419.354 125.621 425.01 119.707 427.153 115.507C428.096 113.622 430.238 104.709 431.952 95.1954C434.609 80.5399 435.038 76.7689 434.781 68.2841C434.438 57.0568 433.324 53.7143 427.924 48.572C422.525 43.4297 418.497 42.5727 398.956 42.5727C384.386 42.5727 381.901 42.7441 380.872 43.944ZM409.412 67.17C410.183 68.027 411.04 69.5697 411.297 70.5125C412.069 72.9122 409.326 92.1101 405.727 110.537C404.441 117.222 399.899 122.278 395.185 122.278C393.299 122.278 391.842 121.764 391.585 121.078C391.157 119.964 392.271 112.422 396.985 83.2825C399.899 65.3702 399.727 65.713 404.355 65.713C406.841 65.713 408.555 66.2272 409.412 67.17ZM397.67 148.847C399.127 151.675 399.384 157.846 398.185 162.474C397.756 164.188 396.728 169.759 395.956 174.987C393.642 190.585 392.271 195.47 389.443 198.384C386.7 201.212 382.929 202.498 380.015 201.555C378.301 200.955 378.215 200.527 378.73 195.213C378.987 192.128 380.615 181.5 382.243 171.73C383.872 161.96 385.243 153.132 385.243 152.275C385.243 151.418 385.586 149.704 386.1 148.504C386.871 146.447 387.386 146.276 391.585 146.276C395.956 146.276 396.47 146.447 397.67 148.847Z" fill="url(#paint7_linear_9_57)"/>
<path d="M533.512 43.8582C532.998 44.5439 532.141 46.3437 531.798 47.8864C531.456 49.429 530.084 54.3999 528.799 58.8566C527.513 63.3132 525.885 69.1412 525.199 71.7123C524.428 74.2835 522.799 79.8543 521.514 84.1395C515.172 104.88 509.772 123.221 503.087 146.704C494.431 177.129 491.946 185.357 489.632 191.699C486.289 200.869 480.461 222.553 480.89 223.838C481.318 224.867 483.461 225.124 492.374 225.124C500.088 225.124 503.601 224.781 504.201 224.01C504.63 223.496 505.658 220.839 506.344 218.268C510.372 203.441 511.658 200.012 513.286 198.984C514.572 198.213 517.057 198.041 521.942 198.47L528.799 198.984L529.056 211.325C529.141 218.696 529.656 224.181 530.17 224.867C530.941 225.724 533.427 225.895 541.14 225.467C546.625 225.124 551.51 224.524 552.025 224.181C553.053 223.41 553.825 208.754 556.653 138.991C557.596 116.365 558.795 86.8821 559.31 73.4264C559.909 59.9707 560.081 47.5435 559.738 45.7437L559.138 42.5727H546.882C537.112 42.5727 534.37 42.8298 533.512 43.8582ZM535.741 129.563C534.969 137.105 533.941 147.732 533.427 153.132C531.884 170.787 531.798 171.044 529.57 172.587C527.342 173.958 522.028 173.701 520.4 172.073C519.2 170.873 521.085 161.617 527.77 135.134C529.399 128.792 531.541 119.707 532.57 114.993C533.598 110.279 534.969 105.909 535.484 105.223C537.112 103.252 537.283 114.05 535.741 129.563Z" fill="url(#paint8_linear_9_57)"/>
<path d="M465.034 230.866C464.349 232.237 462.292 242.094 456.807 270.548C456.121 274.061 454.407 282.546 453.036 289.403C451.065 298.83 450.722 301.915 451.493 302.43C453.379 303.63 460.835 303.201 462.378 301.83C463.749 300.63 464.177 300.63 467.006 302.344C472.491 305.601 479.69 302.43 482.604 295.488C483.889 292.488 487.918 274.661 489.803 263.691C491.003 257.092 490.317 251.35 488.003 249.036C486.203 247.236 480.376 246.807 476.433 248.264C475.148 248.779 474.033 249.036 473.862 248.95C473.776 248.779 474.376 244.836 475.319 240.122C476.262 235.494 476.776 231.123 476.605 230.523C476.262 229.752 474.376 229.409 471.034 229.409C467.006 229.409 465.72 229.752 465.034 230.866ZM477.462 259.834C478.319 263.348 473.519 287.517 471.291 290.945C470.434 292.231 469.32 292.831 468.12 292.659C465.377 292.317 465.292 288.031 467.948 275.09C470.605 262.063 471.548 258.806 472.919 258.206C475.405 257.263 476.947 257.778 477.462 259.834Z" fill="white"/>
<path d="M505.83 230.009C505.573 230.438 504.801 233.009 504.03 235.837C503.002 239.779 503.002 241.065 503.773 241.579C505.658 242.779 513.629 242.351 514.915 240.979C516.286 239.608 517.743 231.723 516.8 230.266C516.2 229.324 506.43 229.066 505.83 230.009Z" fill="white"/>
<path d="M526.742 230.609C525.799 231.723 524.599 237.123 520.228 259.406C518.943 265.748 516.629 277.061 515 284.432C513.372 291.802 512.086 299.087 512.086 300.544V303.201L523.657 302.687L525.114 296.259C526.399 290.431 533.513 255.206 536.684 238.58C537.369 234.98 537.798 231.38 537.455 230.695C536.855 228.981 528.113 228.895 526.742 230.609Z" fill="white"/>
<path d="M547.397 230.866C546.111 233.352 544.568 240.551 545.083 241.494C545.683 242.351 552.539 242.522 555.539 241.751C557.424 241.236 557.853 240.208 558.795 233.437L559.395 229.409H553.739C549.282 229.409 547.997 229.752 547.397 230.866Z" fill="white"/>
<path d="M370.673 233.437C370.673 233.866 369.902 237.808 368.874 242.265C367.931 246.722 365.96 256.406 364.503 263.691C361.074 281.004 359.103 291.288 357.903 297.03C357.389 299.516 357.218 301.915 357.475 302.344C358.075 303.372 365.274 303.287 367.331 302.258C368.188 301.744 368.959 300.544 368.959 299.601C368.959 298.659 369.902 293.174 371.016 287.431C372.13 281.689 373.93 272.519 374.959 267.119C376.758 257.692 378.387 253.235 378.387 257.692C378.387 260.092 376.244 282.032 374.787 293.602C373.759 302.515 374.016 303.115 378.987 303.115C384.3 303.115 383.958 303.887 391.842 277.832C395.442 265.919 397.499 260.263 398.27 259.749C398.87 259.32 399.042 259.92 398.613 261.634C398.27 263.006 397.413 267.548 396.728 271.833C396.042 276.033 394.499 284.517 393.214 290.517C390.643 302.944 390.643 303.115 396.813 303.115C402.47 303.115 402.641 302.773 405.384 288.546C406.927 280.318 408.212 274.147 412.583 252.807C414.469 243.379 416.097 234.98 416.097 234.209C416.097 232.923 414.983 232.837 407.355 233.009L398.527 233.266L392.957 249.721C389.871 258.72 387.129 266.434 386.786 266.777C385.843 267.719 386.015 262.32 387.386 248.264C388.071 241.408 388.671 235.151 388.671 234.294C388.671 233.009 387.643 232.837 379.672 232.837C374.701 232.837 370.673 233.095 370.673 233.437Z" fill="white"/>
<path d="M570.623 235.409C569.251 236.008 568.48 237.465 567.623 241.579C566.509 246.464 566.166 246.979 564.109 247.236C561.367 247.579 560.51 249.036 559.738 254.435C559.138 258.206 559.224 258.549 560.852 258.549C563.681 258.549 563.509 261.206 559.567 279.461C557.938 287.003 556.653 294.631 556.824 296.516C557.167 300.973 560.081 303.287 566.252 303.715C572.337 304.23 573.879 302.944 574.479 297.287C574.822 293.174 574.737 292.831 573.022 292.831C571.994 292.831 570.966 292.231 570.623 291.459C569.851 289.488 572.165 276.29 575.679 262.148C576.536 258.806 576.793 258.549 579.45 258.549C582.107 258.549 582.279 258.292 583.564 254.092C585.021 249.036 584.335 247.407 580.907 247.407C579.022 247.407 578.85 247.15 579.279 245.265C579.622 244.065 580.05 241.408 580.307 239.351L580.822 235.666L577.565 235.151C573.451 234.466 573.022 234.466 570.623 235.409Z" fill="white"/>
<path d="M428.524 248.179C425.782 249.293 422.353 252.892 420.554 256.492C418.582 260.434 413.526 285.46 413.526 291.459C413.526 296.773 415.411 299.944 420.211 302.258C427.753 306.029 438.037 303.115 442.237 295.916C444.38 292.317 450.379 265.148 450.379 259.234C450.379 255.035 447.808 250.578 444.38 248.95C441.208 247.322 431.695 246.893 428.524 248.179ZM437.009 258.206C438.723 259.834 438.809 258.463 435.809 273.976C432.038 293.174 431.267 294.973 427.153 292.831C425.01 291.631 425.01 291.374 428.524 274.49C431.867 257.949 433.581 254.692 437.009 258.206Z" fill="white"/>
<path d="M501.973 248.436C501.459 249.036 500.688 252.035 500.088 255.121C498.374 265.32 493.917 286.232 493.146 288.374C492.717 289.488 492.117 293.345 491.774 296.773L491.26 303.115H496.402C499.573 303.115 501.887 302.687 502.402 302.001C503.344 300.887 504.887 295.059 505.659 289.831C505.916 287.946 507.115 281.946 508.23 276.547C513.029 253.321 513.8 248.779 512.686 248.093C510.972 246.979 502.916 247.322 501.973 248.436Z" fill="white"/>
<path d="M544.14 248.093C543.626 248.436 541.312 257.778 539.083 268.833C536.855 279.889 534.455 291.631 533.855 294.973C533.17 298.23 532.827 301.401 532.998 302.001C533.341 302.773 535.227 303.115 538.655 303.115C543.197 303.115 543.969 302.858 544.654 301.144C545.426 299.259 547.825 288.546 550.225 275.69C550.825 272.176 552.368 264.634 553.568 259.063C555.367 250.921 555.624 248.693 554.767 248.093C553.396 247.236 545.426 247.236 544.14 248.093Z" fill="white"/>
<path d="M587.764 247.921C586.907 248.264 586.65 254.521 586.65 274.661C586.65 289.145 586.221 302.515 585.792 304.401C584.935 308.172 583.05 309.972 580.05 309.972C577.736 309.972 576.708 311.686 575.936 317C575.337 320.942 575.422 321.028 577.736 321.628C581.164 322.485 589.135 320.599 591.535 318.371C595.391 314.771 597.534 309.972 610.133 277.404C611.675 273.376 614.846 265.405 617.075 259.577C619.303 253.835 620.931 248.778 620.589 248.521C619.389 247.322 610.133 247.236 609.19 248.35C608.676 249.036 607.047 253.578 605.505 258.549C600.877 273.719 598.648 280.318 597.705 281.689C597.105 282.632 597.02 279.032 597.448 269.69C597.877 262.406 598.134 254.435 598.22 252.121V247.836L593.506 247.664C590.935 247.579 588.278 247.75 587.764 247.921Z" fill="white"/>
<defs>
<linearGradient id="paint0_linear_9_57" x1="655" y1="160.919" x2="0" y2="160.919" gradientUnits="userSpaceOnUse">
<stop stop-color="#10E2AA"/>
<stop offset="1" stop-color="#00C8FB"/>
</linearGradient>
<linearGradient id="paint1_linear_9_57" x1="655" y1="160.919" x2="0" y2="160.919" gradientUnits="userSpaceOnUse">
<stop stop-color="#10E2AA"/>
<stop offset="1" stop-color="#00C8FB"/>
</linearGradient>
<linearGradient id="paint2_linear_9_57" x1="655" y1="160.919" x2="0" y2="160.919" gradientUnits="userSpaceOnUse">
<stop stop-color="#10E2AA"/>
<stop offset="1" stop-color="#00C8FB"/>
</linearGradient>
<linearGradient id="paint3_linear_9_57" x1="655" y1="160.919" x2="0" y2="160.919" gradientUnits="userSpaceOnUse">
<stop stop-color="#10E2AA"/>
<stop offset="1" stop-color="#00C8FB"/>
</linearGradient>
<linearGradient id="paint4_linear_9_57" x1="655" y1="160.919" x2="0" y2="160.919" gradientUnits="userSpaceOnUse">
<stop stop-color="#10E2AA"/>
<stop offset="1" stop-color="#00C8FB"/>
</linearGradient>
<linearGradient id="paint5_linear_9_57" x1="655" y1="160.919" x2="0" y2="160.919" gradientUnits="userSpaceOnUse">
<stop stop-color="#10E2AA"/>
<stop offset="1" stop-color="#00C8FB"/>
</linearGradient>
<linearGradient id="paint6_linear_9_57" x1="655" y1="160.919" x2="0" y2="160.919" gradientUnits="userSpaceOnUse">
<stop stop-color="#10E2AA"/>
<stop offset="1" stop-color="#00C8FB"/>
</linearGradient>
<linearGradient id="paint7_linear_9_57" x1="655" y1="160.919" x2="0" y2="160.919" gradientUnits="userSpaceOnUse">
<stop stop-color="#10E2AA"/>
<stop offset="1" stop-color="#00C8FB"/>
</linearGradient>
<linearGradient id="paint8_linear_9_57" x1="655" y1="160.919" x2="0" y2="160.919" gradientUnits="userSpaceOnUse">
<stop stop-color="#10E2AA"/>
<stop offset="1" stop-color="#00C8FB"/>
</linearGradient>
</defs>
</svg>
