<svg width="104" height="52" viewBox="0 0 104 52" fill="none" xmlns="http://www.w3.org/2000/svg">
<path d="M7.94713 0.0916698C7.0626 0.200535 5.26633 0.73125 4.96695 0.962588C4.85809 1.04424 4.51789 1.23475 4.21851 1.38444C3.91913 1.53413 3.15708 2.17371 2.5175 2.81329C1.63297 3.69781 1.23834 4.21492 0.85731 4.99058C0.0680405 6.62356 0 6.92293 0 8.93693C0.0136081 10.6516 0.0408243 10.8421 0.421851 11.8627C0.952567 13.2235 1.40163 13.9583 2.36781 14.9789C3.47006 16.1356 4.3682 16.6935 6.3822 17.4964C6.74961 17.6461 6.76322 17.6869 6.68157 18.2993C6.62714 18.6531 6.53189 19.2383 6.45024 19.6193C6.3822 19.9867 6.20529 21.089 6.0556 22.0687C5.90591 23.0349 5.68818 24.3549 5.57932 24.9945C5.47045 25.6341 5.25272 26.9132 5.08943 27.8522C4.93974 28.7911 4.76283 29.8934 4.68118 30.3016C4.49067 31.4855 4.5315 33.0777 4.79005 33.7309C5.11664 34.5882 5.85148 35.4319 6.61353 35.8129C7.5661 36.3028 9.36237 36.3028 10.5871 35.8129C12.084 35.2142 13.5128 33.6492 13.9347 32.1387C14.1116 31.5264 14.4654 29.7709 14.6287 28.7367C14.6831 28.3557 14.8736 27.1854 15.0506 26.1103C15.3363 24.3005 15.3499 24.1508 15.1322 23.9467C14.9145 23.7289 14.8056 23.7425 13.3359 24.2324C11.6213 24.7904 11.3628 24.9673 11.3628 25.5116C11.3628 25.7157 11.2947 26.0967 11.2267 26.3689C11.145 26.6411 10.9953 27.5392 10.8865 28.3421C10.4646 31.4719 10.2741 32.0163 9.48484 32.4381L9.03578 32.6831L8.68196 32.2748C8.35537 31.9074 8.34176 31.8257 8.42341 30.846C8.46423 30.288 8.64114 29.145 8.79083 28.3285C8.94052 27.4984 9.14464 26.3145 9.2535 25.6749C9.60732 23.4296 9.7434 22.6131 9.86587 22.0007C9.94752 21.6605 10.0564 20.9529 10.138 20.4358C10.3013 19.2247 10.5327 18.0271 10.6143 17.9455C10.6824 17.8775 12.152 17.4556 13.6081 17.0882C15.2547 16.6799 16.3433 16.2989 16.5747 16.0404C16.7652 15.8362 17.2687 13.169 17.5544 10.8965C17.7177 9.65816 17.1054 7.83468 16.3161 7.15427C15.1322 6.14727 12.6283 5.99758 11.0498 6.8685C9.97473 7.44004 9.02217 8.46065 8.46423 9.61734C7.97434 10.6243 7.64775 12.0804 7.26672 14.8565C7.04899 16.4214 6.98095 16.4622 5.59293 15.7546C3.60615 14.7476 2.1909 13.0738 1.56493 10.9781C1.30638 10.1208 1.27916 9.75342 1.33359 8.66477C1.44246 6.65077 2.08204 5.1811 3.49728 3.68421C5.82426 1.23475 9.81144 0.581561 12.9005 2.14649C13.3768 2.40505 13.404 2.44587 13.404 3.09906C13.404 4.05163 13.8122 4.71842 14.792 5.39883C15.6901 6.01119 15.8943 6.05202 16.2208 5.67099C16.5338 5.31718 16.7516 5.33079 17.3639 5.75264C17.6497 5.94315 17.9899 6.07923 18.126 6.05202C18.5614 5.97037 18.3981 5.49408 17.7858 5.08584C17.1598 4.66399 17.0646 4.26935 17.5 3.99719C17.6769 3.88833 17.8946 3.95637 18.4254 4.29657C19.1466 4.75925 19.5276 4.77285 19.5276 4.32379C19.5276 4.16049 19.2827 3.90194 18.8472 3.62977C18.1532 3.18071 18.0443 2.99019 18.3165 2.71803C18.6159 2.41865 18.3301 1.92876 17.5817 1.4797C16.4522 0.799291 16.0712 0.73125 15.0233 0.989804L14.1252 1.22114L12.9821 0.73125C11.4444 0.0644535 9.77061 -0.139668 7.94713 0.0916698ZM13.4312 10.2569C13.8122 10.5971 13.7034 12.3934 13.159 14.7748C12.9277 15.7682 12.9277 15.7818 12.3153 16.0404C11.4308 16.4214 11.0089 16.4894 10.9137 16.2445C10.8729 16.1356 10.9273 15.5641 11.0362 14.9789C11.145 14.3938 11.2947 13.4684 11.3628 12.9513C11.5124 11.8627 11.8254 10.7604 12.0704 10.461C12.4378 10.0256 13.0638 9.93032 13.4312 10.2569Z" fill="url(#paint0_linear_81_6)"/>
<path d="M71.8643 6.82767C71.565 6.97736 71.3744 7.7122 71.1023 9.68537C71.0342 10.2025 70.7893 11.713 70.558 13.0194C70.3266 14.3257 70.0545 15.9179 69.9456 16.5575C69.7415 17.8774 69.238 21.0209 69.0611 22.1368C68.9386 22.926 68.544 25.2122 68.1221 27.58C67.9724 28.3693 67.7275 29.7709 67.5642 30.7099C67.4145 31.6488 67.1968 32.9144 67.0879 33.5268C66.8157 35.0373 66.8157 35.568 67.1287 35.6632C67.3192 35.7177 74.7765 35.8129 75.2936 35.7585C75.5249 35.7449 75.661 35.3366 75.9195 33.867C76.2325 32.0026 76.3278 32.0843 73.647 32.0435L71.4425 32.0026L71.4017 31.3767C71.3744 31.0229 71.4561 30.2064 71.565 29.5396C71.6738 28.8728 71.9188 27.3759 72.1093 26.2192C72.2998 25.0625 72.5175 23.9739 72.5992 23.797C72.7216 23.5112 72.8033 23.4976 74.1369 23.4976C75.1167 23.4976 75.6202 23.4432 75.7971 23.3071C76.0692 23.103 76.3278 22.1368 76.4775 20.6127C76.5727 19.7009 76.5727 19.6873 76.2189 19.5512C76.0148 19.4832 75.2936 19.4152 74.6268 19.4152C73.5653 19.4152 73.4157 19.3879 73.402 19.1702C73.3748 18.8708 73.334 19.1838 73.8783 15.809C74.1505 14.1624 74.4363 12.4342 74.5043 11.9579C74.7765 10.3386 74.5587 10.461 77.1443 10.4066C78.9269 10.3794 79.4304 10.325 79.5937 10.1617C79.8251 9.91671 80.2197 8.2157 80.2197 7.44003C80.2197 7.12705 80.1517 6.86849 80.0564 6.82767C79.6618 6.69159 72.1229 6.69159 71.8643 6.82767Z" fill="url(#paint1_linear_81_6)"/>
<path d="M93.8686 6.85489C93.6373 7.04541 93.5284 7.41282 93.3515 8.52869C93.229 9.31796 92.7664 12.1348 92.3309 14.7884C91.8818 17.442 91.3647 20.6535 91.1742 21.9327C90.9837 23.1982 90.6163 25.3483 90.3577 26.6955C89.8406 29.4443 89.0514 34.1527 88.9561 35.0237C88.9153 35.5408 88.9425 35.6224 89.2283 35.7177C89.6229 35.8537 92.2084 35.7857 92.3581 35.636C92.4262 35.568 92.6575 34.3841 92.8752 33.0097C93.1066 31.6352 93.3787 29.9478 93.5012 29.281C93.6237 28.6006 93.8006 27.5936 93.8958 27.0357C94.0047 26.4778 94.1544 25.5252 94.236 24.9264C94.5899 22.4226 94.9028 21.4019 95.175 21.851C95.2294 21.9463 95.3791 23.5248 95.5152 25.3755C95.6377 27.2262 95.801 29.4443 95.8826 30.3016C95.9507 31.159 96.0595 32.6422 96.1276 33.6084C96.1956 34.6154 96.3181 35.4183 96.4133 35.5408C96.5358 35.6904 96.876 35.7449 97.7878 35.7449C99.4071 35.7449 99.3663 35.7857 99.6793 33.6356C99.7609 33.0369 99.897 32.2612 99.965 31.8938C100.033 31.54 100.237 30.2472 100.428 29.0089C100.618 27.7705 100.822 26.505 100.89 26.1784C100.972 25.8654 101.149 24.8312 101.299 23.9058C101.448 22.9669 101.734 21.2795 101.925 20.1636C102.115 19.0341 102.428 17.1698 102.619 16.0131C102.796 14.8565 103.068 13.2235 103.204 12.407C104.061 7.50808 104.102 7.16788 103.898 6.96376C103.666 6.75964 101.557 6.55551 100.986 6.7052C100.55 6.81407 100.455 7.12705 100.088 9.61734C99.9242 10.706 99.6385 12.475 99.4479 13.5637C99.271 14.6523 99.0669 15.8362 99.0125 16.2173C98.4818 19.6057 98.1007 21.1434 97.8422 20.8984C97.7605 20.8032 97.502 17.7005 97.3659 14.9925C97.1346 10.325 96.9168 7.0454 96.8352 6.92293C96.7944 6.85489 96.1684 6.74603 95.4608 6.7052C94.3041 6.60995 94.1272 6.63716 93.8686 6.85489Z" fill="url(#paint2_linear_81_6)"/>
<path d="M22.7527 7.12705C22.6439 7.34478 22.4806 7.80746 22.3853 8.18848C22.2901 8.5559 21.9635 9.69898 21.6777 10.706C21.3783 11.713 21.0789 12.7608 21.0245 13.0194C20.9701 13.2779 20.7523 13.9855 20.5482 14.5843C20.3441 15.183 20.0039 16.2853 19.7998 17.0337C19.5957 17.7822 19.133 19.3471 18.7928 20.5038C18.439 21.6605 17.7994 23.8378 17.3639 25.3347C16.425 28.5054 15.9487 30.0975 15.1866 32.547C14.5062 34.7515 14.3838 35.4591 14.6423 35.6224C14.8736 35.7721 17.7586 35.7857 17.9899 35.636C18.1668 35.5271 19.1194 32.7375 19.1194 32.3565C19.1194 32.234 19.2146 31.989 19.3371 31.8257C19.5276 31.5536 19.6501 31.5264 20.8068 31.5264C21.8274 31.5264 22.0995 31.5672 22.1676 31.7305C22.2084 31.853 22.2084 32.6967 22.154 33.6356C22.0995 34.9148 22.1132 35.3775 22.2492 35.5408C22.467 35.8129 25.3383 35.8401 25.6785 35.568C25.937 35.3775 26.0867 32.86 26.3317 24.3821C26.4133 21.6877 26.5358 18.6803 26.6038 17.7141C26.6855 16.7344 26.7399 15.3327 26.7399 14.5843C26.7399 13.8358 26.8079 11.8627 26.8896 10.2025C27.0121 7.78024 27.0121 7.12705 26.876 6.96376C26.7399 6.80046 26.3453 6.75964 24.8212 6.75964H22.9432L22.7527 7.12705ZM23.4195 17.7414C23.3651 18.4762 23.2698 19.4968 23.2018 20.0275C23.0521 21.157 22.7936 24.0011 22.6711 25.8382C22.6167 26.6002 22.5078 27.2398 22.3989 27.3623C22.2765 27.512 21.9907 27.58 21.4872 27.58C20.5346 27.58 20.4394 27.4031 20.7523 26.1512C20.9837 25.185 21.1062 24.7087 21.841 21.5244C22.2628 19.7145 22.9024 17.0882 23.0249 16.6527C23.0521 16.5302 23.1746 16.4214 23.2971 16.4214C23.474 16.4214 23.4876 16.5983 23.4195 17.7414Z" fill="url(#paint3_linear_81_6)"/>
<path d="M31.8702 6.99096C31.7477 7.14065 31.5708 7.83467 31.4483 8.7328C31.1897 10.5155 30.8768 12.6111 30.6726 13.8358C30.523 14.7884 30.4141 15.4552 29.584 20.0956C29.2846 21.783 28.9172 23.9194 28.7675 24.8584C28.6314 25.7974 28.4409 26.8996 28.3593 27.3079C28.2912 27.7161 28.1279 28.6006 28.0191 29.281C27.5156 32.2612 27.4475 32.7239 27.2978 33.3771C27.2026 33.7581 27.1481 34.4385 27.1754 34.874L27.2162 35.6768L28.7947 35.7177C30.0467 35.7449 30.4141 35.7177 30.5366 35.5544C30.6999 35.3638 31.4483 31.3222 31.8565 28.4645C31.9654 27.7161 32.1015 26.8316 32.1831 26.4914C32.2512 26.1512 32.3736 25.4435 32.4553 24.8992C32.6186 23.8922 32.8091 23.5656 33.1221 23.7561C33.3534 23.9058 33.3534 24.0963 33.1493 30.1519C32.9588 35.2278 32.9724 35.3775 33.2174 35.568C33.4079 35.704 33.8842 35.7449 35.0953 35.7177C36.7146 35.6768 36.7282 35.6768 36.8235 35.3366C36.8779 35.1461 36.9188 32.3701 36.9324 29.1722C36.946 22.6131 36.8779 23.0757 38.0754 21.5516C38.8511 20.5855 39.1369 19.8506 39.409 18.1904C39.4907 17.7005 39.6268 16.7888 39.7356 16.1492C39.8445 15.5096 40.0486 14.3529 40.2119 13.5637C40.3888 12.7472 40.5249 11.5497 40.5249 10.774C40.5521 9.18187 40.3752 8.69198 39.4226 7.78023C38.4837 6.8821 37.9394 6.75963 34.7687 6.75963C32.3873 6.75963 32.0607 6.78684 31.8702 6.99096ZM36.4969 10.7332C36.7419 10.9645 36.8099 11.1687 36.8099 11.7266C36.8099 12.7336 35.8982 17.9455 35.5988 18.6395C35.1497 19.7009 34.0066 20.3133 33.5439 19.7554C33.3398 19.4968 33.3262 19.6057 34.1699 14.3802C34.4829 12.475 34.7959 10.9373 34.932 10.6652C35.1089 10.3113 36.0887 10.3522 36.4969 10.7332Z" fill="url(#paint4_linear_81_6)"/>
<path d="M43.5187 7.01819C43.369 7.26313 42.8111 10.4202 42.3892 13.4276C42.2259 14.6115 42.1851 14.8565 41.3686 19.6193C40.7971 22.9669 40.5657 24.3685 40.28 26.2192C39.9534 28.3829 39.6676 30.0431 39.5315 30.5738C39.4771 30.8324 39.3818 31.3903 39.3274 31.7985C39.2866 32.2068 39.1913 32.6967 39.1233 32.8872C38.9055 33.4587 38.7422 35.255 38.8783 35.4999C38.9736 35.7177 39.2049 35.7449 40.5249 35.7449C41.3686 35.7449 42.1171 35.6904 42.1987 35.636C42.4028 35.5135 42.4845 35.2006 42.6614 34.0439C43.3826 29.3083 43.5051 28.6278 44.0902 25.1986C44.2807 24.0691 44.5665 22.4226 44.7026 21.5244C44.8523 20.6263 45.1517 18.7892 45.3966 17.442C45.6279 16.0948 45.9001 14.489 45.9954 13.8767C46.0906 13.2643 46.2131 12.6383 46.2675 12.4886C46.3083 12.339 46.4036 11.7946 46.4716 11.2911C46.5397 10.7876 46.7166 9.68537 46.8799 8.86889C47.2745 6.73242 47.3017 6.75963 45.2877 6.75963C43.8453 6.75963 43.6684 6.78685 43.5187 7.01819Z" fill="url(#paint5_linear_81_6)"/>
<path d="M49.3838 6.90932C49.2205 7.18148 48.9211 8.44703 48.9211 8.8961C48.9211 9.14105 48.8259 9.82145 48.7306 10.393C48.3904 12.2029 48.1046 13.8631 47.9685 14.7884C47.9005 15.2783 47.5603 17.3195 47.2065 19.3471C46.8663 21.3611 46.5261 23.4432 46.458 23.9467C46.4036 24.4638 46.2947 25.1986 46.2131 25.5796C46.1451 25.9743 46.0362 26.6274 45.9954 27.0357C45.9001 27.8658 45.7912 28.5054 45.383 30.533C44.7979 33.4451 44.5529 35.2006 44.7162 35.4863C44.8523 35.7585 44.9475 35.7721 47.8052 35.7177C50.6629 35.6632 50.7854 35.6496 51.5611 35.2958C53.5887 34.3568 54.5685 32.7239 55.1808 29.2674C55.3441 28.3693 55.5619 27.131 55.6707 26.5186C55.7796 25.8926 55.9021 24.94 55.9429 24.4093C56.0245 23.5112 55.9973 23.3615 55.6299 22.6811C55.3713 22.2048 55.0311 21.7966 54.6637 21.5516C53.9833 21.1026 53.9425 20.8576 54.4868 20.5718C54.7046 20.463 55.2625 20.0275 55.7115 19.6057C56.8274 18.5851 57.0179 18.0271 57.6303 14.2441C57.7119 13.7542 57.8344 12.9785 57.9025 12.5295C58.161 10.9101 58.0113 9.65815 57.3853 8.46064C57.0043 7.69859 56.5689 7.34478 55.6843 7.03179C55.0175 6.80046 54.5549 6.75963 52.2007 6.75963C50.3908 6.75963 49.4518 6.81406 49.3838 6.90932ZM53.9017 10.5699C53.9153 10.5699 53.9969 10.7604 54.0922 10.9781C54.3099 11.4816 54.2283 12.3798 53.6839 15.496C53.2485 18.068 52.9491 18.8844 52.3367 19.1974C51.8196 19.4696 51.112 19.4832 51.0168 19.2246C50.9759 19.1158 51.1528 17.7141 51.425 16.122C51.6836 14.5299 51.9693 12.7336 52.0646 12.1348C52.1598 11.5361 52.2823 10.9101 52.3367 10.7468C52.4592 10.4066 52.8811 10.3113 53.4798 10.461C53.6976 10.5155 53.8881 10.5699 53.9017 10.5699ZM51.9693 23.5248C52.2415 23.9058 52.2551 25.2394 51.9965 26.4642C51.8877 26.9677 51.6972 28.0155 51.5747 28.8047C51.4386 29.594 51.2753 30.4377 51.2073 30.6827C50.9351 31.5808 49.9281 32.234 49.1933 32.0026C48.7986 31.8802 48.8259 31.4311 49.479 27.7161C49.792 25.9607 50.0778 24.3005 50.1186 24.0419C50.2003 23.3615 50.3636 23.2254 51.112 23.2254C51.6291 23.2254 51.806 23.2799 51.9693 23.5248Z" fill="url(#paint6_linear_81_6)"/>
<path d="M60.4744 6.97736C60.3791 7.09983 60.2566 7.5489 60.2022 7.97075C60.1206 8.7192 59.8076 10.6379 59.5354 11.9987C59.4265 12.5975 59.236 13.7406 58.3787 18.8708C58.2699 19.5104 58.0929 20.6399 57.9705 21.3883C57.8616 22.1368 57.6711 23.2663 57.5622 23.9058C57.4534 24.5454 57.1132 26.5322 56.8138 28.3285C56.5008 30.1247 56.1334 32.3156 55.9837 33.2138C55.834 34.0983 55.7251 35.01 55.7524 35.255L55.7932 35.6768H62.189L62.9783 35.2142C64.5432 34.316 65.3869 33.0777 65.9856 30.846C66.4619 28.9953 67.224 24.0827 67.1015 23.484C66.979 22.8172 66.285 21.8102 65.7271 21.47C65.4685 21.3203 65.2508 21.1026 65.2508 20.9801C65.2508 20.8712 65.5094 20.6127 65.836 20.4222C66.5844 19.9459 67.4825 19.0069 67.8227 18.3401C67.9724 18.0407 68.3126 16.6255 68.5848 15.115C69.0066 12.788 69.0747 12.1893 69.0339 10.8421C68.9794 9.0594 68.8025 8.52868 67.9452 7.7122C67.0879 6.89571 66.4483 6.75963 63.3457 6.75963C61.0323 6.75963 60.6377 6.78685 60.4744 6.97736ZM65.0059 10.6652C65.1283 10.8012 65.2644 11.0462 65.3052 11.1959C65.4277 11.5769 64.9922 14.6251 64.4207 17.5509C64.2166 18.6123 63.4954 19.4152 62.7469 19.4152C62.4475 19.4152 62.2162 19.3335 62.1754 19.2246C62.1073 19.0477 62.2842 17.8502 63.0327 13.2235C63.4954 10.3794 63.4681 10.4338 64.203 10.4338C64.5976 10.4338 64.8698 10.5155 65.0059 10.6652ZM63.1415 23.6337C63.3729 24.0827 63.4137 25.0625 63.2232 25.7974C63.1552 26.0695 62.9919 26.954 62.8694 27.7841C62.502 30.2608 62.2842 31.0365 61.8352 31.4991C61.3997 31.9482 60.801 32.1523 60.3383 32.0027C60.0661 31.9074 60.0525 31.8394 60.1342 30.9957C60.175 30.5058 60.4335 28.8184 60.6921 27.267C60.9506 25.7157 61.1684 24.3141 61.1684 24.178C61.1684 24.0419 61.2228 23.7698 61.3045 23.5792C61.4269 23.2526 61.5086 23.2254 62.1754 23.2254C62.8694 23.2254 62.951 23.2526 63.1415 23.6337Z" fill="url(#paint7_linear_81_6)"/>
<path d="M84.7104 6.96375C84.6287 7.07261 84.4926 7.35838 84.4382 7.60333C84.3838 7.84828 84.166 8.63755 83.9619 9.34517C83.7578 10.0528 83.4993 10.9781 83.3904 11.3864C83.2679 11.7946 83.0094 12.6792 82.8052 13.3596C81.7982 16.6527 80.9409 19.5648 79.8795 23.2935C78.5051 28.1243 78.1105 29.4307 77.743 30.4377C77.2123 31.8938 76.287 35.3366 76.355 35.5408C76.423 35.7041 76.7632 35.7449 78.1785 35.7449C79.4032 35.7449 79.9611 35.6904 80.0564 35.568C80.1244 35.4863 80.2877 35.0645 80.3966 34.6562C81.0362 32.302 81.2403 31.7577 81.4989 31.5944C81.703 31.4719 82.0976 31.4447 82.8733 31.5128L83.9619 31.5944L84.0027 33.554C84.0164 34.7243 84.098 35.5952 84.1797 35.704C84.3021 35.8401 84.6968 35.8673 85.9215 35.7993C86.7924 35.7449 87.5681 35.6496 87.6497 35.5952C87.813 35.4727 87.9355 33.1457 88.3846 22.0687C88.5342 18.4762 88.7248 13.795 88.8064 11.6585C88.9017 9.52207 88.9289 7.5489 88.8745 7.26313L88.7792 6.75963H86.8332C85.2819 6.75963 84.8465 6.80045 84.7104 6.96375ZM85.0642 20.5718C84.9417 21.7694 84.7784 23.4568 84.6968 24.3141C84.4518 27.1173 84.4382 27.1582 84.0844 27.4031C83.7306 27.6208 82.8869 27.58 82.6283 27.3215C82.4378 27.1309 82.7372 25.6613 83.7986 21.4564C84.0572 20.4494 84.3974 19.0069 84.5607 18.2585C84.724 17.51 84.9417 16.816 85.0234 16.7071C85.2819 16.3942 85.3091 18.1088 85.0642 20.5718Z" fill="url(#paint8_linear_81_6)"/>
<path d="M73.8376 36.6566C73.7288 36.8743 73.4022 38.4393 72.5313 42.9572C72.4224 43.5151 72.1502 44.8623 71.9325 45.9509C71.6195 47.4478 71.5651 47.9377 71.6876 48.0194C71.9869 48.2099 73.1708 48.1418 73.4158 47.9241C73.6335 47.7336 73.7016 47.7336 74.1506 48.0058C75.0216 48.5229 76.1646 48.0194 76.6273 46.9171C76.8314 46.4408 77.471 43.6103 77.7704 41.8685C77.9609 40.8207 77.852 39.9089 77.4846 39.5415C77.1988 39.2558 76.2735 39.1877 75.6475 39.419C75.4434 39.5007 75.2665 39.5415 75.2393 39.5279C75.2257 39.5007 75.3209 38.8747 75.4706 38.1263C75.6203 37.3914 75.702 36.6974 75.6747 36.6022C75.6203 36.4797 75.3209 36.4253 74.7902 36.4253C74.1506 36.4253 73.9465 36.4797 73.8376 36.6566ZM75.8108 41.2561C75.9469 41.8141 75.1848 45.6516 74.831 46.1959C74.695 46.4 74.5181 46.4953 74.3275 46.468C73.8921 46.4136 73.8785 45.7332 74.3003 43.6784C74.7222 41.61 74.8719 41.0928 75.0896 40.9976C75.4842 40.8479 75.7292 40.9295 75.8108 41.2561Z" fill="white"/>
<path d="M80.3151 36.5205C80.2743 36.5886 80.1518 36.9968 80.0293 37.4459C79.866 38.0718 79.866 38.276 79.9885 38.3576C80.2879 38.5481 81.5534 38.4801 81.7576 38.2624C81.9753 38.0446 82.2066 36.7927 82.0569 36.5613C81.9617 36.4117 80.4104 36.3708 80.3151 36.5205Z" fill="white"/>
<path d="M83.6355 36.6158C83.4858 36.7927 83.2953 37.65 82.6013 41.1881C82.3971 42.1951 82.0297 43.9914 81.7712 45.1617C81.5126 46.332 81.3085 47.4886 81.3085 47.72V48.1418L83.1456 48.0602L83.3769 47.0396C83.5811 46.1142 84.7105 40.5213 85.214 37.8813C85.3229 37.3098 85.3909 36.7383 85.3365 36.6294C85.2412 36.3572 83.8532 36.3436 83.6355 36.6158Z" fill="white"/>
<path d="M86.915 36.6566C86.7109 37.0512 86.466 38.1943 86.5476 38.344C86.6429 38.4801 87.7315 38.5073 88.2078 38.3848C88.5072 38.3032 88.5752 38.1399 88.7249 37.0648L88.8202 36.4253H87.922C87.2144 36.4253 87.0103 36.4797 86.915 36.6566Z" fill="white"/>
<path d="M58.8551 37.0648C58.8551 37.1329 58.7327 37.7589 58.5694 38.4665C58.4197 39.1741 58.1067 40.7118 57.8753 41.8685C57.331 44.6173 57.018 46.2503 56.8275 47.1621C56.7459 47.5567 56.7187 47.9377 56.7595 48.0058C56.8547 48.1691 57.9978 48.1554 58.3244 47.9922C58.4605 47.9105 58.583 47.72 58.583 47.5703C58.583 47.4206 58.7327 46.5497 58.9096 45.638C59.0865 44.7262 59.3722 43.2701 59.5355 42.4128C59.8213 40.9159 60.0799 40.2083 60.0799 40.9159C60.0799 41.297 59.7397 44.7806 59.5083 46.6177C59.345 48.033 59.3858 48.1282 60.1751 48.1282C61.0188 48.1282 60.9644 48.2507 62.2163 44.1138C62.7879 42.2223 63.1145 41.3242 63.2369 41.2425C63.3322 41.1745 63.3594 41.2698 63.2914 41.5419C63.2369 41.7596 63.1008 42.4809 62.992 43.1613C62.8831 43.8281 62.6382 45.1753 62.4341 46.1278C62.0258 48.101 62.0258 48.1282 63.0056 48.1282C63.9037 48.1282 63.9309 48.0738 64.3664 45.8149C64.6114 44.5085 64.8155 43.5287 65.5095 40.1403C65.8089 38.6434 66.0674 37.3098 66.0674 37.1873C66.0674 36.9832 65.8905 36.9696 64.6794 36.9968L63.2778 37.0376L62.3932 39.6504C61.9033 41.0792 61.4679 42.304 61.4134 42.3584C61.2638 42.5081 61.291 41.6508 61.5087 39.419C61.6176 38.3304 61.7128 37.337 61.7128 37.2009C61.7128 36.9968 61.5495 36.9696 60.284 36.9696C59.4947 36.9696 58.8551 37.0104 58.8551 37.0648Z" fill="white"/>
<path d="M90.6028 37.3778C90.3851 37.4731 90.2626 37.7044 90.1265 38.3576C89.9496 39.1333 89.8952 39.2149 89.5686 39.2558C89.1331 39.3102 88.9971 39.5415 88.8746 40.3988C88.7793 40.9976 88.7929 41.052 89.0515 41.052C89.5006 41.052 89.4733 41.4739 88.8474 44.3724C88.5888 45.5699 88.3847 46.781 88.4119 47.0804C88.4663 47.788 88.929 48.1554 89.9088 48.2235C90.875 48.3051 91.1199 48.101 91.2152 47.2029C91.2696 46.5497 91.256 46.4953 90.9838 46.4953C90.8205 46.4953 90.6572 46.4 90.6028 46.2775C90.4803 45.9645 90.8478 43.8689 91.4057 41.6236C91.5418 41.0928 91.5826 41.052 92.0044 41.052C92.4263 41.052 92.4535 41.0112 92.6576 40.3444C92.889 39.5415 92.7801 39.283 92.2358 39.283C91.9364 39.283 91.9092 39.2421 91.9772 38.9428C92.0317 38.7522 92.0997 38.3304 92.1405 38.0038L92.2222 37.4187L91.7051 37.337C91.0519 37.2281 90.9838 37.2281 90.6028 37.3778Z" fill="white"/>
<path d="M68.0406 39.4054C67.6051 39.5823 67.0608 40.1539 66.775 40.7254C66.4621 41.3514 65.6592 45.325 65.6592 46.2775C65.6592 47.1212 65.9586 47.6247 66.7206 47.9922C67.9181 48.5909 69.5511 48.1282 70.2179 46.9852C70.5581 46.4136 71.5107 42.0998 71.5107 41.1609C71.5107 40.4941 71.1024 39.7865 70.5581 39.5279C70.0546 39.2694 68.5441 39.2013 68.0406 39.4054ZM69.3878 40.9976C69.66 41.2561 69.6736 41.0384 69.1973 43.5015C68.5985 46.5497 68.4761 46.8355 67.8229 46.4953C67.4827 46.3047 67.4827 46.2639 68.0406 43.5831C68.5713 40.9568 68.8435 40.4397 69.3878 40.9976Z" fill="white"/>
<path d="M79.7027 39.4463C79.6211 39.5415 79.4986 40.0178 79.4034 40.5077C79.1312 42.1271 78.4236 45.4474 78.3011 45.7876C78.2331 45.9645 78.1378 46.5769 78.0834 47.1212L78.0017 48.1282H78.8182C79.3217 48.1282 79.6891 48.0602 79.7708 47.9513C79.9205 47.7744 80.1654 46.8491 80.2879 46.019C80.3287 45.7196 80.5192 44.767 80.6961 43.9097C81.4582 40.2219 81.5806 39.5007 81.4037 39.3918C81.1316 39.2149 79.8524 39.2694 79.7027 39.4463Z" fill="white"/>
<path d="M86.3979 39.3918C86.3163 39.4463 85.9489 40.9296 85.595 42.685C85.2412 44.4404 84.8602 46.3048 84.765 46.8355C84.6561 47.3526 84.6016 47.8561 84.6289 47.9513C84.6833 48.0738 84.9827 48.1282 85.527 48.1282C86.2482 48.1282 86.3707 48.0874 86.4796 47.8152C86.602 47.5159 86.9831 45.8149 87.3641 43.7736C87.4594 43.2157 87.7043 42.0182 87.8948 41.1337C88.1806 39.8409 88.2214 39.4871 88.0853 39.3918C87.8676 39.2558 86.602 39.2558 86.3979 39.3918Z" fill="white"/>
<path d="M93.3244 39.3646C93.1884 39.419 93.1475 40.4124 93.1475 43.6103C93.1475 45.9101 93.0795 48.033 93.0114 48.3324C92.8754 48.9311 92.576 49.2169 92.0997 49.2169C91.7323 49.2169 91.569 49.489 91.4465 50.3327C91.3513 50.9587 91.3649 50.9723 91.7323 51.0676C92.2766 51.2037 93.5422 50.9043 93.9232 50.5505C94.5356 49.9789 94.8758 49.2169 96.8761 44.0458C97.1211 43.4062 97.6246 42.1407 97.9784 41.2153C98.3322 40.3036 98.5908 39.5007 98.5363 39.4599C98.3458 39.2694 96.8761 39.2558 96.7265 39.4327C96.6448 39.5415 96.3863 40.2628 96.1413 41.052C95.4065 43.4607 95.0527 44.5085 94.903 44.7262C94.8077 44.8759 94.7941 44.3044 94.8621 42.8211C94.9302 41.6644 94.971 40.3988 94.9846 40.0314V39.351L94.2362 39.3238C93.8279 39.3102 93.4061 39.3374 93.3244 39.3646Z" fill="white"/>
<defs>
<linearGradient id="paint0_linear_81_6" x1="104" y1="25.5506" x2="0" y2="25.5506" gradientUnits="userSpaceOnUse">
<stop stop-color="#10E2AA"/>
<stop offset="1" stop-color="#00C8FB"/>
</linearGradient>
<linearGradient id="paint1_linear_81_6" x1="104" y1="25.5506" x2="0" y2="25.5506" gradientUnits="userSpaceOnUse">
<stop stop-color="#10E2AA"/>
<stop offset="1" stop-color="#00C8FB"/>
</linearGradient>
<linearGradient id="paint2_linear_81_6" x1="104" y1="25.5506" x2="0" y2="25.5506" gradientUnits="userSpaceOnUse">
<stop stop-color="#10E2AA"/>
<stop offset="1" stop-color="#00C8FB"/>
</linearGradient>
<linearGradient id="paint3_linear_81_6" x1="104" y1="25.5506" x2="0" y2="25.5506" gradientUnits="userSpaceOnUse">
<stop stop-color="#10E2AA"/>
<stop offset="1" stop-color="#00C8FB"/>
</linearGradient>
<linearGradient id="paint4_linear_81_6" x1="104" y1="25.5506" x2="0" y2="25.5506" gradientUnits="userSpaceOnUse">
<stop stop-color="#10E2AA"/>
<stop offset="1" stop-color="#00C8FB"/>
</linearGradient>
<linearGradient id="paint5_linear_81_6" x1="104" y1="25.5506" x2="0" y2="25.5506" gradientUnits="userSpaceOnUse">
<stop stop-color="#10E2AA"/>
<stop offset="1" stop-color="#00C8FB"/>
</linearGradient>
<linearGradient id="paint6_linear_81_6" x1="104" y1="25.5506" x2="0" y2="25.5506" gradientUnits="userSpaceOnUse">
<stop stop-color="#10E2AA"/>
<stop offset="1" stop-color="#00C8FB"/>
</linearGradient>
<linearGradient id="paint7_linear_81_6" x1="104" y1="25.5506" x2="0" y2="25.5506" gradientUnits="userSpaceOnUse">
<stop stop-color="#10E2AA"/>
<stop offset="1" stop-color="#00C8FB"/>
</linearGradient>
<linearGradient id="paint8_linear_81_6" x1="104" y1="25.5506" x2="0" y2="25.5506" gradientUnits="userSpaceOnUse">
<stop stop-color="#10E2AA"/>
<stop offset="1" stop-color="#00C8FB"/>
</linearGradient>
</defs>
</svg>
